<svg id="Layer_1" enable-background="new 0 0 510 510" height="512" viewBox="0 0 510 510" width="512" xmlns="http://www.w3.org/2000/svg"><g id="XMLID_2433_"><path id="XMLID_3559_" d="m208.23 375c-3.63 7.259-26.357 52.715-30 60l38.386 7.5 38.384-7.5 10-30-10-30-23.385-7.5z" fill="#453f81"/><path id="XMLID_3558_" d="m301.771 375c-10.615-3.404-18.034-5.783-28.372-9.1l-18.399 9.1v60l38.387 7.502 38.386-7.499c-8.13-16.259-25.213-50.423-30.002-60.003z" fill="#2d2854"/><path id="XMLID_3557_" d="m135 435v75h120l10-37.5-10-37.5c-14.518 0-105.387 0-120 0z" fill="#76e2f8"/><path id="XMLID_3556_" d="m375 435c-14.518 0-105.387 0-120 0v75h120c0-20.194 0-63.236 0-75z" fill="#4bb9ec"/><path id="XMLID_3555_" d="m30 30-10 127.5 10 127.5 112.5 10 112.5-10 10-127.5-10-127.5-112.5-10z" fill="#e9f1ff"/><path id="XMLID_3554_" d="m480 30-112.5-10-112.5 10v255l112.5 10 112.5-10 10-127.5z" fill="#d5def0"/><path id="XMLID_3553_" d="m210 285h-90v-210h90v75l-10 14.996 10 14.996v30.003l-10 15.001 10 15z" fill="#ffda2d"/><g id="XMLID_3551_"><g><g id="XMLID_565_"><path d="m165 210h45v30h-45z" fill="#fdbf00"/></g></g></g><g id="XMLID_3549_"><g><path id="XMLID_560_" d="m165 150h45v30h-45z" fill="#fdbf00"/></g></g><path id="XMLID_2750_" d="m360 88-30 47v15l30 14 30-14v-15z" fill="#fcaf9d"/><path id="XMLID_3547_" d="m30 285c0-7.193 0-247.807 0-255h225l10-15-10-15c-53.638 0-206.103 0-255 0v375h255l10-45-10-45c-15.191 0-209.806 0-225 0z" fill="#6058ad"/><path id="XMLID_3546_" d="m510 0c-83.467 0-156.983 0-255 0v30h225v255c-15.191 0-209.806 0-225 0v90h255c0-12.006 0-354.952 0-375z" fill="#453f81"/><path id="XMLID_3545_" d="m330 285h60c0-50.516 0-85.42 0-135h-60z" fill="#00b44b"/></g></svg>