<svg id="Capa_1" enable-background="new 0 0 512 512" height="512" viewBox="0 0 512 512" width="512" xmlns="http://www.w3.org/2000/svg"><g id="XMLID_1244_"><path id="XMLID_1357_" d="m492 188.113-236-178.113-236 178.113h24v313.887h424v-313.887z" fill="#d1a184"/><path id="XMLID_964_" d="m92 206h328v296h-328z" fill="#6d92ac"/><g fill="#ffec80"><path id="XMLID_1160_" d="m136 404h98v98h-98z"/><path id="XMLID_1159_" d="m278 404h98v98h-98z"/><path id="XMLID_1156_" d="m207 306h98v98h-98z"/></g><circle id="XMLID_1428_" cx="256" cy="128" fill="#fff" r="28.943"/><g id="XMLID_589_"><path id="XMLID_1110_" d="m498.024 180.131-236-178.113c-3.566-2.69-8.482-2.69-12.049 0l-236 178.113c-4.408 3.327-5.284 9.598-1.957 14.006 3.326 4.408 9.597 5.285 14.006 1.958l7.976-6.019v311.924c0 5.523 4.478 10 10 10h424c5.522 0 10-4.477 10-10v-311.924l7.976 6.019c1.804 1.361 3.919 2.019 6.017 2.019 3.03 0 6.023-1.372 7.989-3.977 3.326-4.408 2.45-10.679-1.958-14.006zm-352.024 311.869v-78h78v78zm149-98h-78v-78h78zm-27 20v78h-24v-78zm20 78v-78h78v78zm170 0h-28v-286c0-5.523-4.478-10-10-10h-119c-5.522 0-10 4.477-10 10s4.478 10 10 10h109v276h-24v-88c0-5.523-4.478-10-10-10h-61v-88c0-5.523-4.478-10-10-10h-98c-5.522 0-10 4.477-10 10v88h-61c-5.522 0-10 4.477-10 10v88h-24v-276h109c5.522 0 10-4.477 10-10s-4.478-10-10-10h-119c-5.522 0-10 4.477-10 10v286h-28v-317.019l202-152.453 202 152.453z"/><path id="XMLID_1299_" d="m217.057 128c0 21.474 17.47 38.943 38.943 38.943s38.943-17.47 38.943-38.943-17.469-38.944-38.943-38.944-38.943 17.47-38.943 38.944zm57.886 0c0 10.445-8.498 18.943-18.943 18.943s-18.943-8.498-18.943-18.943 8.498-18.943 18.943-18.943 18.943 8.497 18.943 18.943z"/><path id="XMLID_1300_" d="m256 196c-2.63 0-5.21 1.07-7.07 2.93s-2.93 4.44-2.93 7.07 1.069 5.21 2.93 7.07 4.44 2.93 7.07 2.93 5.21-1.07 7.069-2.93c1.86-1.86 2.931-4.44 2.931-7.07s-1.07-5.21-2.931-7.07c-1.859-1.86-4.439-2.93-7.069-2.93z"/></g></g></svg>