<svg id="Layer_1" height="512" viewBox="0 0 512 512" width="512" xmlns="http://www.w3.org/2000/svg" data-name="Layer 1"><path d="m16 120v297.82a40.156 40.156 0 0 0 40 40.18h400a40.156 40.156 0 0 0 40-40.18v-297.82z" fill="#80aaff"/><path d="m456 54h-400a40.156 40.156 0 0 0 -40 40.18v25.82h480v-25.82a40.156 40.156 0 0 0 -40-40.18z" fill="#d4e1f4"/><path d="m56 417.82v-297.82h-40v297.82a40.156 40.156 0 0 0 40 40.18h40a40.156 40.156 0 0 1 -40-40.18z" fill="#6a95d3"/><path d="m56 94.18a40.156 40.156 0 0 1 40-40.18h-40a40.156 40.156 0 0 0 -40 40.18v25.82h40z" fill="#b6c3d3"/><g fill="#284268"><path d="m456 48h-400a46 46 0 0 0 -46 46v324a46 46 0 0 0 46 46h400a46 46 0 0 0 46-46v-324a46 46 0 0 0 -46-46zm34 66h-382a6 6 0 0 0 0 12h382v291.818a34.194 34.194 0 0 1 -34 34.182h-400a34.194 34.194 0 0 1 -34-34.182v-291.818h44a6 6 0 0 0 0-12h-44v-19.818a34.194 34.194 0 0 1 34-34.182h400a34.194 34.194 0 0 1 34 34.182z"/><path d="m57.435 81.651a8.511 8.511 0 1 0 8.509 8.51 8.52 8.52 0 0 0 -8.509-8.51z"/><path d="m89.091 98.672a8.511 8.511 0 1 0 -8.511-8.511 8.521 8.521 0 0 0 8.511 8.511z"/><path d="m121.748 81.651a8.511 8.511 0 1 0 8.51 8.51 8.521 8.521 0 0 0 -8.51-8.51z"/><path d="m41 163.317a6 6 0 0 0 -6 6v84.572a6 6 0 0 0 12 0v-84.572a6 6 0 0 0 -6-6z"/><path d="m41 140.053a6 6 0 0 0 -6 6v4.614a6 6 0 0 0 12 0v-4.614a6 6 0 0 0 -6-6z"/><path d="m55.037 272.757a6 6 0 0 0 0 8.486l44.721 44.721a6 6 0 0 0 8.484-8.485l-40.477-40.479 40.477-40.479a6 6 0 0 0 -8.484-8.485z"/><path d="m171.271 325.964a6 6 0 0 0 8.484 0l44.721-44.721a6 6 0 0 0 0-8.486l-44.721-44.721a6 6 0 0 0 -8.484 8.485l40.477 40.479-40.477 40.479a6 6 0 0 0 0 8.485z"/><path d="m120.85 355.264a5.989 5.989 0 0 0 7.241-4.423l35-144.864a6 6 0 0 0 -11.664-2.818l-35 144.864a6 6 0 0 0 4.423 7.241z"/><path d="m255.808 223h3a6 6 0 0 0 0-12h-3a6 6 0 0 0 0 12z"/><path d="m288.717 223h10.318a6 6 0 1 0 0-12h-10.318a6 6 0 0 0 0 12z"/><path d="m329.432 223h123.289a6 6 0 0 0 0-12h-123.289a6 6 0 0 0 0 12z"/><path d="m255.808 263h3a6 6 0 1 0 0-12h-3a6 6 0 0 0 0 12z"/><path d="m288.717 263h10.318a6 6 0 1 0 0-12h-10.318a6 6 0 0 0 0 12z"/><path d="m329.432 263h123.289a6 6 0 0 0 0-12h-123.289a6 6 0 0 0 0 12z"/><path d="m255.808 303h3a6 6 0 1 0 0-12h-3a6 6 0 0 0 0 12z"/><path d="m288.717 303h10.318a6 6 0 1 0 0-12h-10.318a6 6 0 0 0 0 12z"/><path d="m329.432 303h123.289a6 6 0 0 0 0-12h-123.289a6 6 0 0 0 0 12z"/><path d="m255.808 343h3a6 6 0 1 0 0-12h-3a6 6 0 0 0 0 12z"/><path d="m288.717 343h10.318a6 6 0 1 0 0-12h-10.318a6 6 0 0 0 0 12z"/><path d="m329.432 343h123.289a6 6 0 0 0 0-12h-123.289a6 6 0 0 0 0 12z"/></g></svg>