<svg id="Capa_1" enable-background="new 0 0 511.988 511.988" height="512" viewBox="0 0 511.988 511.988" width="512" xmlns="http://www.w3.org/2000/svg"><g id="XMLID_1249_"><g id="XMLID_2162_"><path id="XMLID_342_" d="m184.734 168.624c0-87.606 71.019-158.624 158.624-158.624s158.624 71.018 158.624 158.624-71.018 158.624-158.624 158.624c-22.664 0-44.212-4.763-63.713-13.327l-27.991 21.5v-37.355c-40.495-28.74-66.92-76.004-66.92-129.442z" fill="#a0e4a5"/></g><g id="XMLID_2401_"><path id="XMLID_314_" d="m71.314 135.143-14.333 10.749c-47.555 35.661-60.974 101.227-31.253 152.705l83.519 144.66c29.721 51.477 93.212 72.639 147.874 49.287l16.475-7.038c14.876-6.355 20.852-24.284 12.763-38.293l-36.456-63.144c-7.449-12.902-23.946-17.322-36.848-9.873l-20.543 11.861c-9.7 5.6-22.104 2.277-27.704-7.423l-55.362-95.89c-5.6-9.7-2.277-22.104 7.423-27.704l20.543-11.861c12.902-7.449 17.322-23.946 9.873-36.848l-36.427-63.093c-8.088-14.011-26.602-17.801-39.544-8.095z" fill="#cbf4fb"/></g><g id="XMLID_2398_"><g id="XMLID_2400_"><path d="m249.903 384.068c-7.449-12.902-23.946-17.322-36.848-9.873l-20.209 11.668 62.11 107.577c.723-.292 1.446-.588 2.165-.895l16.475-7.038c14.876-6.355 20.851-24.284 12.763-38.293z" fill="#fff"/></g><g id="XMLID_2399_"><path d="m117.203 254.844 20.209-11.668c12.902-7.449 17.322-23.946 9.873-36.848l-36.427-63.093c-8.088-14.009-26.603-17.799-39.544-8.093l-14.333 10.749c-.627.47-1.244.947-1.858 1.428z" fill="#fff"/></g></g><g id="XMLID_2397_"><path d="m193.939 388.768 59.796 103.569 19.861-6.832c14.876-6.355 20.852-24.284 12.763-38.293l-36.456-63.144c-7.449-12.902-23.946-17.322-36.848-9.873z" fill="#fff"/></g><g id="XMLID_2395_"><path d="m116.794 255.149-59.693-103.391 14.213-16.615c12.942-9.705 31.456-5.916 39.545 8.093l36.427 63.093c7.449 12.902 3.028 29.399-9.873 36.848z" fill="#fff"/></g><g id="XMLID_2459_"><path id="XMLID_289_" d="m295.358 263.113h96c17.673 0 32-14.327 32-32v-128h-160v128c0 17.673 14.327 32 32 32z" fill="#ff7d97"/></g><g id="XMLID_370_"><path id="XMLID_371_" d="m455.972 270.333c-2.631 0-5.211 1.069-7.07 2.93-1.86 1.86-2.93 4.44-2.93 7.07s1.069 5.21 2.93 7.069c1.859 1.86 4.439 2.931 7.07 2.931 2.63 0 5.21-1.07 7.069-2.931 1.86-1.859 2.931-4.439 2.931-7.069s-1.07-5.21-2.931-7.07c-1.859-1.861-4.439-2.93-7.069-2.93z"/><path id="XMLID_374_" d="m258.563 379.067c-4.938-8.553-12.911-14.671-22.451-17.228-9.54-2.556-19.505-1.243-28.057 3.694l-20.543 11.86c-4.909 2.835-11.209 1.146-14.044-3.763l-55.362-95.891c-2.834-4.909-1.146-11.209 3.763-14.044l20.543-11.86c17.656-10.193 23.728-32.852 13.534-50.509l-36.427-63.092c-5.283-9.152-14.252-15.617-24.606-17.736-10.354-2.12-21.142.301-29.598 6.642l-.001.001-14.333 10.749c-51.554 38.663-66.133 109.9-33.913 165.707l83.52 144.66c23.391 40.513 66.15 63.731 110.505 63.731 16.744 0 33.719-3.311 49.958-10.249l16.475-7.038c9.719-4.152 17.21-12.284 20.552-22.311s2.228-21.026-3.057-30.179zm-167.661-238.973c4.823.987 8.835 3.879 11.297 8.143l36.427 63.091c4.68 8.107 1.892 18.51-6.214 23.189l-11.987 6.92-52.629-91.157 9.518-7.138h-.001c3.939-2.953 8.765-4.036 13.589-3.048zm120.171 351.894c-37.391-.002-73.447-19.578-93.166-53.731l-83.52-144.66c-24.753-42.875-16.737-96.549 17.77-130.404l51.82 89.755c-8.075 9.482-9.766 23.405-3.191 34.792l55.362 95.891c4.044 7.005 10.574 12.016 18.387 14.108 4.431 1.188 8.972 1.354 13.35.541l51.841 89.792c-9.472 2.636-19.104 3.917-28.653 3.916zm68.03-25.922c-1.558 4.671-4.908 8.309-9.436 10.242l-10.941 4.675-52.659-91.208 11.987-6.921c3.927-2.267 8.498-2.87 12.881-1.696 4.379 1.174 8.04 3.982 10.307 7.909l36.457 63.145c2.461 4.264 2.96 9.184 1.404 13.854z"/><path id="XMLID_383_" d="m423.358 93.113h-36v-4.346c0-24.262-19.738-44-44-44s-44 19.738-44 44v4.346h-36c-5.522 0-10 4.478-10 10v128c0 23.159 18.841 42 42 42h96c23.159 0 42-18.841 42-42v-128c0-5.522-4.478-10-10-10zm-104-4.345c0-13.233 10.767-24 24-24s24 10.767 24 24v4.346h-48zm94 142.345c0 12.131-9.869 22-22 22h-96c-12.131 0-22-9.869-22-22v-118h26v15.518c0 5.522 4.478 10 10 10s10-4.478 10-10v-15.518h48v15.518c0 5.522 4.478 10 10 10s10-4.478 10-10v-15.518h26z"/><path id="XMLID_385_" d="m343.358 0c-92.979 0-168.623 75.645-168.623 168.624 0 52.805 24.919 102.695 66.919 134.508v32.289c0 3.809 2.163 7.286 5.579 8.97 1.402.69 2.914 1.03 4.42 1.03 2.163 0 4.312-.701 6.093-2.069l23.393-17.968c19.795 7.875 40.697 11.864 62.22 11.864 28.543 0 56.751-7.266 81.575-21.013 4.831-2.676 6.579-8.761 3.903-13.593-2.675-4.83-8.761-6.579-13.593-3.903-21.865 12.108-46.724 18.509-71.886 18.509-20.746 0-40.829-4.2-59.692-12.483-3.341-1.468-7.216-.997-10.112 1.226l-11.899 9.141v-17.064c0-3.24-1.57-6.279-4.212-8.154-39.266-27.869-62.707-73.211-62.707-121.288-.001-81.953 66.67-148.626 148.622-148.626s148.624 66.673 148.624 148.624c0 24.746-6.2 49.239-17.931 70.833-2.637 4.853-.84 10.924 4.014 13.561 4.851 2.635 10.923.839 13.561-4.014 13.317-24.515 20.356-52.31 20.356-80.38 0-92.979-75.645-168.624-168.624-168.624z"/></g></g></svg>