<svg id="Capa_1" enable-background="new 0 0 512 512" height="512" viewBox="0 0 512 512" width="512" xmlns="http://www.w3.org/2000/svg"><g id="XMLID_978_"><g id="XMLID_2704_"><path id="XMLID_2718_" d="m10 237.484h492v264.516h-492z" fill="#ffec80"/><path id="XMLID_983_" d="m10 237.484 132.258 132.258h227.484l132.258-132.258-74-74-344 .516z" fill="#adeefa"/><path id="XMLID_982_" d="m428 317.5-55.5 55h-233l-55.5-55v-307.5h344z" fill="#fff"/><path id="XMLID_981_" d="m171.771 340.228-161.771 161.772h492l-161.772-161.772z" fill="#fffbe5"/></g><g id="XMLID_1088_"><path id="XMLID_1091_" d="m304 279.287h-96c-17.673 0-32-14.327-32-32v-128h160v128c0 17.673-14.327 32-32 32z" fill="#ff7d97"/><g id="XMLID_1145_"><path id="XMLID_1599_" d="m509.071 230.413-71.071-71.072v-149.341c0-5.523-4.478-10-10-10h-344c-5.522 0-10 4.477-10 10v149.341l-71.071 71.072c-1.875 1.875-2.929 4.419-2.929 7.071v264.516c0 5.523 4.478 10 10 10h492c5.522 0 10-4.477 10-10v-264.516c0-2.652-1.054-5.196-2.929-7.071zm-17.071 247.444-108.115-108.115 108.115-108.116zm-4.142-240.373-49.858 49.857v-99.715zm-69.858-217.484v287.341l-48.258 48.258-22.442-22.442c-1.876-1.875-4.419-2.929-7.071-2.929h-39.229c-5.522 0-10 4.477-10 10s4.478 10 10 10h35.086l141.771 141.772h-443.714l141.771-141.771h35.086c5.522 0 10-4.477 10-10s-4.478-10-10-10h-39.229c-2.652 0-5.195 1.054-7.071 2.929l-22.442 22.442-48.258-48.259v-287.341zm-398 241.626 108.115 108.115-108.115 108.116zm54 25.715-49.858-49.858 49.858-49.857z"/><path id="XMLID_1721_" d="m256 330.23c-2.63 0-5.21 1.07-7.07 2.93s-2.93 4.44-2.93 7.07 1.069 5.21 2.93 7.07 4.44 2.93 7.07 2.93 5.21-1.07 7.069-2.93c1.86-1.86 2.931-4.44 2.931-7.07s-1.07-5.21-2.931-7.07c-1.859-1.86-4.439-2.93-7.069-2.93z"/><path id="XMLID_1771_" d="m208 289.287h96c23.159 0 42-18.841 42-42v-128c0-5.523-4.478-10-10-10h-36v-4.345c0-24.262-19.738-44-44-44s-44 19.738-44 44v4.345h-36c-5.522 0-10 4.477-10 10v128c0 23.158 18.841 42 42 42zm24-184.345c0-13.234 10.767-24 24-24s24 10.766 24 24v4.345h-48zm-46 24.345h26v15.518c0 5.523 4.478 10 10 10s10-4.477 10-10v-15.518h48v15.518c0 5.523 4.478 10 10 10s10-4.477 10-10v-15.518h26v118c0 12.131-9.869 22-22 22h-96c-12.131 0-22-9.869-22-22z"/></g></g></g></svg>